<svg width="25" height="25" viewBox="0 0 25 25" fill="none" xmlns="http://www.w3.org/2000/svg">
<path d="M21.5293 24.7223C21.1199 24.7243 20.7143 24.6441 20.3362 24.4867C19.9581 24.3293 19.6152 24.0976 19.3276 23.8054L12.7225 17.179L6.11749 23.8054C5.82984 24.0976 5.48692 24.3293 5.10884 24.4867C4.73077 24.6441 4.32516 24.7243 3.91581 24.7223C3.50595 24.7278 3.09928 24.6494 2.7207 24.4917C2.34213 24.3341 1.99961 24.1005 1.71413 23.8054C1.42274 23.5167 1.19139 23.1727 1.03349 22.7936C0.875593 22.4144 0.794287 22.0076 0.794287 21.5966C0.794287 21.1857 0.875593 20.7789 1.03349 20.3997C1.19139 20.0206 1.42274 19.6766 1.71413 19.3878L8.31918 12.7614L1.71416 6.13502C1.40805 5.84887 1.16253 5.5038 0.99225 5.12038C0.821964 4.73697 0.7304 4.32308 0.723019 3.90339C0.715638 3.48371 0.792592 3.06683 0.94929 2.67763C1.10599 2.28843 1.33921 1.93488 1.63507 1.63807C1.93092 1.34126 2.28333 1.10728 2.67127 0.950077C3.05922 0.792872 3.47475 0.71567 3.89308 0.723074C4.31141 0.730478 4.72397 0.822339 5.10614 0.993176C5.48832 1.16401 5.83228 1.41032 6.11751 1.71742L12.7225 8.34382L19.3276 1.71742C19.6128 1.41032 19.9567 1.16401 20.3389 0.993176C20.7211 0.822339 21.1337 0.730478 21.552 0.723074C21.9703 0.71567 22.3858 0.792872 22.7738 0.950077C23.1617 1.10728 23.5141 1.34126 23.81 1.63807C24.1059 1.93488 24.3391 2.28843 24.4958 2.67763C24.6525 3.06683 24.7294 3.48371 24.722 3.90339C24.7147 4.32308 24.6231 4.73697 24.4528 5.12038C24.2825 5.5038 24.037 5.84887 23.7309 6.13502L17.1259 12.7614L23.7309 19.3878C24.0223 19.6766 24.2537 20.0206 24.4116 20.3997C24.5695 20.7789 24.6508 21.1857 24.6508 21.5966C24.6508 22.0076 24.5695 22.4144 24.4116 22.7936C24.2537 23.1727 24.0223 23.5167 23.7309 23.8054C23.4455 24.1005 23.1029 24.3341 22.7244 24.4917C22.3458 24.6494 21.9391 24.7278 21.5293 24.7223Z" fill="#282C2F"/>
</svg>
