<?xml version="1.0" encoding="UTF-8"?><svg id="Lager_1" xmlns="http://www.w3.org/2000/svg" xmlns:xlink="http://www.w3.org/1999/xlink" viewBox="0 0 700 700"><defs><style>.cls-1{fill:none;}.cls-2{clip-path:url(#clippath);}.cls-3{fill:#e9ec6b;}.cls-4{fill:#eec8b7;}.cls-5{fill:#b1b5ce;}.cls-6{fill:#e0e1eb;}.cls-7{fill:#071d49;}.cls-8{fill:#6e6259;}.cls-9{fill:#2e0076;}</style><clipPath id="clippath"><circle class="cls-1" cx="350" cy="350" r="350"/></clipPath></defs><g class="cls-2"><circle class="cls-6" cx="350" cy="350" r="350"/><polygon class="cls-9" points="442.0175 620.6226 561.6761 1284.808 404.2956 1301.5558 339.4749 749.9506 442.0175 620.6226"/><path class="cls-9" d="m312.8044,533.3979l-127.9173,768.158h156.026l102.2603-591.6831c7.9094-46.4878,2.6968-94.2603-15.0519-137.9485l-15.6517-38.5264h-99.6653Z"/><path class="cls-5" d="m262.4816,431.1425l-51.6017,81.5689,34.4332-54.4299c-4.2613-42.9354-17.1279-67.8665-23.3433-110.5628l-59.3161,30.341c4.9158,51.276,9.8317,102.5519,14.7475,153.8279,1.6664,17.3819,4.4099,36.8035,18.2524,47.4474,11.2962,8.6859,27.4395,8.818,40.7242,3.6638,13.2847-5.1542,24.262-14.8316,34.4797-24.7637,19.5782-19.0309,37.5317-39.7327,53.6013-61.8064l3.5137-59.9812-65.4909-5.3049Z"/><path class="cls-4" d="m297.5367,365.1691c-11.1524,20.937-25.5843,47.724-38.7829,71.2784h233.4991c-12.93-44.2078-27.6732-72.3559-77.8976-113.543-9.6506-7.9141-32.9224-30.6664-32.9224-30.6664l-28.7243,16.2935c-23.3891,13.2672-42.5302,32.9045-55.1719,56.6375Z"/><path class="cls-4" d="m320.308,370.4139l-8.5818,19.7288c-4.3304,9.9552-5.9715,20.8729-4.759,31.6613,0,0,6.6376,36.6743,6.4764,39.125-1.5417,23.4487-.9417,72.4689-.9417,72.4689h99.6653l32.1683-128.3496-40.438-57.3295-83.5897,22.6951Z"/><path class="cls-5" d="m526.2217,736.2021c-12.9295-14.0593-19.7894-32.5034-26.3483-50.4426-12.7532-34.8813-18.5973-48.9607-31.3505-83.8419-12.7747-34.94-25.6198-70.1947-35.1039-106.1257l-16.6443-59.3443h75.4782l80.4784,270.4215"/><path class="cls-5" d="m517.684,786.5345c1.8187,3.5172,5.2402,7.42,8.9664,6.0806,3.7036-1.3312,3.8842-6.4178,3.4776-10.3323-1.2281-11.8235-1.6247-23.7333-1.1861-35.6123.577-15.6255,5.0445-38.7222-3.7678-52.9021-4.1466-6.6723-28.8637-17.7023-28.8637-17.7023,0,0,5.8024,17.6092,8.2999,31.813,1.4658,8.3364,1.2173,22.203,1.8145,30.6475,1.1652,16.4771,3.5828,33.1625,11.2592,48.0079Z"/><path class="cls-7" d="m307.3958,441.245l-2.1628-19.2464c-1.2449-11.0753.447-22.3318,4.8929-32.552l8.5819-19.729,3.2008,1.3927-8.5819,19.729c-4.2024,9.6602-5.8018,20.3002-4.6251,30.7698l2.1628,19.2464-3.4686.3896Z"/><rect class="cls-3" x="486.2697" y="676.4698" width="76.9046" height="3.4902" transform="translate(-281.6966 386.6712) rotate(-32.3952)"/><path class="cls-7" d="m191.3628,310.1483l-7.7309,3.3129-41.2053-96.1559c-.9565-2.232.0776-4.8168,2.3096-5.7733l3.6894-1.581,42.9372,100.1973Z"/><path class="cls-5" d="m221.5382,352.5113c-.7282.2809,1.165-.556,1.023-1.3235-3.8592-20.8559-1.9088-39.3888-11.4274-56.057-5.2464-9.1871-14.1363-15.7512-20.0657-24.5131-2.1108-3.119-3.8966-6.5743-7.4635-8.3685-1.7227-.8666-3.7936-1.0459-5.5514-.253-5.4201,2.4446-3.3248,10.2955-.4937,15.3678l13.8033,32.7844-7.731,3.3126-16.2382-37.893c-3.1922-4.272-9.2911-5.1451-12.8108-2.3484-1.6833-12.0561-3.3666-24.1123-5.0499-36.1684-.3-2.1488-.7112-4.4506-1.4427-6.5441-1.5603-4.4655-7.9082-4.7965-9.9853-.5467-2.3347,4.7769-2.9936,10.644-3.4311,16.0763-.6714,8.3365-1.3429,16.673-2.0143,25.0095-1.7842,22.1528-3.373,45.4717,6.0362,65.6061,6.9556,14.884,19.4582,26.8367,25.1944,42.2318"/><path class="cls-5" d="m163.8111,297.3575c5.4615,2.1958,10.5697,5.2675,15.0698,9.0619,0,0,14.6524,3.3086,17.6762,2.3232.824-.2685,1.6482-.6009,2.3016-1.1702,1.6689-1.4541,1.7816-4.0272,1.2791-6.1829-1.5665-6.7202-7.4624-11.4587-13.2448-15.2243-7.4943-4.8804-15.4408-9.0659-23.7046-12.4855l-3.3527-.798c-6.5556-1.5603-13.4783,1.5177-16.3509,7.6135-.0207.044-.0413.0881-.0617.1322-2.0378,4.414-2.4974,9.3872-2.5431,14.2487-.0103,1.1005-.0007,2.2054.1576,3.2946"/><path class="cls-7" d="m194.8284,310.6542c-4.6921,0-13.3794-1.8655-16.332-2.5322l-.4151-.094-.3255-.2742c-4.3746-3.6892-9.2853-6.6421-14.5958-8.7774l1.3021-3.2383c5.5221,2.22,10.6388,5.2708,15.214,9.071,6.7421,1.5008,14.7871,2.782,16.3405,2.2741.5899-.1923,1.2532-.4412,1.6953-.8264,1.0837-.9447,1.0857-2.929.7261-4.4712-1.4575-6.2535-7.1354-10.6663-12.4975-14.1582-7.3508-4.7868-15.1867-8.9186-23.2916-12.2825l-3.2171-.765c-5.8498-1.3927-11.8936,1.4078-14.3684,6.6591l-.0558.1198c-2.0403,4.4196-2.3449,9.5546-2.3824,13.534-.0093.9832-.0061,2.0267.1393,3.0264l-3.454.5025c-.1811-1.2456-.1858-2.4918-.1758-3.5616.0409-4.329.3849-9.9417,2.7038-14.9641l.0648-.1398c3.1776-6.7429,10.8886-10.3425,18.3366-8.5724l3.6159.8829c8.3486,3.4554,16.4199,7.7066,23.9896,12.636,5.5959,3.6444,12.2435,8.7891,13.9919,16.2901.7755,3.3274.1079,6.2048-1.8324,7.895-.9138.7967-1.9822,1.2125-2.9066,1.5139-.5415.1768-1.325.2522-2.2699.2522Z"/><path class="cls-5" d="m163.8111,297.3575c8.2637,3.4196,15.5876,5.8468,23.0819,10.7272,5.7824,3.7656,11.6783,8.504,13.2448,15.2243.5025,2.1557.3899,4.7288-1.2791,6.1829-.6534.5693-1.4776.9017-2.3016,1.1702-1.1537.3759-4.0001.1268-7.0796-.3251-5.9751-.8769-16.6975-6.4664-16.6975-6.4664l-8.9689-4.5937s38.6399,16.5642,44.2472,39.5031"/><path class="cls-7" d="m206.363,359.1944c-3.472-14.204-20.5812-26.0799-32.2094-32.6859-1.2488-.6067-2.0627-1.0289-2.1801-1.0903l-8.958-4.5881,1.4833-3.1574c.2819.1208,5.0826,2.1932,11.5182,5.8561,3.4503,1.66,9.7705,4.5024,13.7141,5.0814,4.9153.7212,6.0981.4543,6.2854.3925.5902-.1923,1.2537-.4412,1.6961-.8264,1.0832-.9442,1.0852-2.9286.7256-4.4707-1.4575-6.254-7.1354-10.6668-12.4975-14.1587-5.806-3.7807-11.6231-6.0986-17.7817-8.5524-1.6381-.6525-3.3067-1.3172-5.0152-2.0243l1.3347-3.2256c1.6939.7012,3.3481,1.3601,4.9723,2.0072,6.3243,2.52,12.2978,4.8997,18.3947,8.8704,5.5959,3.6444,12.2435,8.7891,13.9919,16.2911.7757,3.3264.1079,6.2038-1.8322,7.8945-.9145.7967-1.9826,1.212-2.9069,1.5135-.8848.2893-2.5789.5196-7.8743-.2576-.0295-.0044-.0589-.0088-.0886-.0131,11.518,8.5928,18.4461,17.4296,20.6182,26.3151l-3.3907.8288Z"/><circle class="cls-5" cx="376.4012" cy="227.298" r="44.047"/><path class="cls-8" d="m417.7165,246.646c-5.5284,6.3493-16.2629,5.0992-22.8369-3.8578-.925-1.2604-4.0755-7.377-4.0755-7.377,4.6729-3.3559,8.1484-8.3557,9.6643-13.9194.6899-2.5468.9823-5.2555.3916-7.8356-.5806-2.5673-2.1266-4.9926-4.443-6.2692-2.4038-1.3215-5.3949-1.2763-8.0056-.4231-2.6106.8533-4.913,2.4368-7.109,4.1022l-1.0214-1.7623c-5.214-7.8982-10.655-16.5288-15.5805-24.7174,6.9335-2.0974,14.4468-2.7153,22.1309-1.5196,25.4524,3.9478,36.4081,22.3165,34.5499,48.0121-.3985,5.5086-1.6691,10.7536-3.6647,15.5671Z"/><path class="cls-7" d="m340.0229,236.3168c6.7906,1.1129,13.92.0554,20.0952-2.9807"/><path class="cls-7" d="m345.344,238.4922c-1.8767,0-3.752-.1495-5.6032-.4529l.5644-3.4447c6.431,1.0538,13.1938.0506,19.0429-2.8243l1.5398,3.1321c-4.8114,2.3656-10.1808,3.5898-15.5439,3.5898Z"/><circle class="cls-8" cx="456.7524" cy="141.0199" r="56.0785"/><rect class="cls-3" x="403.4946" y="161.8846" width="21.3555" height="50.3438" rx="10.6777" ry="10.6777" transform="translate(-4.3782 364.0998) rotate(-47.2338)"/></g></svg>