<?xml version="1.0" encoding="UTF-8"?><svg id="Lager_1" xmlns="http://www.w3.org/2000/svg" viewBox="0 0 48 48"><defs><style>.cls-1{fill:#bae0ff;}.cls-2{fill:#1861f2;}</style></defs><path class="cls-2" d="m35.1,16.5h-5.22l1-3.84c.4603-1.8255.251-3.7556-.59-5.4399-.8296-1.67-2.5352-2.7245-4.4-2.72h-.48c-2.7094.0055-4.9045,2.2006-4.91,4.91.0051,1.2609-.4956,2.4713-1.39,3.36l-3.73,3.73h-6.88c-2.2092,0-4,1.7908-4,4v15c0,2.2092,1.7908,4,4,4h3c1.7414,0,3.2077-1.1196,3.757-2.6729l.293.4028c1.0354,1.4243,2.6891,2.2679,4.45,2.27h13.29c2.2626,0,4.2925-1.3903,5.11-3.5l3.7-9.21c.3655-.9066.5499-1.8759.543-2.8533-.0294-4.1365-3.4064-7.4661-7.543-7.4367Z"/><path class="cls-1" d="m12.5,35.5c0,.5523-.4477,1-1,1h-3c-.5523,0-1-.4477-1-1v-15c0-.5523.4477-1,1-1h4v16Z"/><path class="cls-1" d="m39.32,25.64l-3.71,9.26c-.3777.95-1.2977,1.5725-2.32,1.5699h-13.29c-.7865-.0015-1.5269-.3717-2-1l-2.5-3.401v-11.449l5.73-5.73c1.4572-1.4509,2.2744-3.4237,2.27-5.48,0-1.0548.8552-1.91,1.91-1.91h.48c.7364-.0138,1.4145.3993,1.74,1.06.5195,1.0438.6507,2.2383.37,3.37l-1.92,7.54h9.06c.5638.0017,1.1224.1091,1.6466.3167,2.316.9168,3.4502,3.5374,2.5334,5.8534Z"/></svg>