<svg width="21" height="21" viewBox="0 0 21 21" fill="none" xmlns="http://www.w3.org/2000/svg">
<path d="M21 10.5C21 16.299 16.299 21 10.5 21C4.70101 21 0 16.299 0 10.5C0 4.70101 4.70101 0 10.5 0C16.299 0 21 4.70101 21 10.5Z" fill="#92E7BD"/>
<path fill-rule="evenodd" clip-rule="evenodd" d="M6.82877 10.1044C7.06596 10.1044 7.29344 10.0102 7.46116 9.84246C7.62888 9.67474 7.7231 9.44727 7.7231 9.21007V6.82518C7.7231 6.58799 7.62888 6.36051 7.46116 6.19279C7.29344 6.02507 7.06596 5.93085 6.82877 5.93085C6.59158 5.93085 6.3641 6.02507 6.19638 6.19279C6.02866 6.36051 5.93443 6.58799 5.93443 6.82518V9.21007C5.93443 9.44727 6.02866 9.67474 6.19638 9.84246C6.3641 10.0102 6.59158 10.1044 6.82877 10.1044ZM13.9834 10.1044C14.2206 10.1044 14.4481 10.0102 14.6158 9.84246C14.7836 9.67474 14.8778 9.44727 14.8778 9.21007V6.82518C14.8778 6.58799 14.7836 6.36051 14.6158 6.19279C14.4481 6.02507 14.2206 5.93085 13.9834 5.93085C13.7463 5.93085 13.5188 6.02507 13.3511 6.19279C13.1833 6.36051 13.0891 6.58799 13.0891 6.82518V9.21007C13.0891 9.44727 13.1833 9.67474 13.3511 9.84246C13.5188 10.0102 13.7463 10.1044 13.9834 10.1044ZM10.2933 14.169C12.0831 14.169 13.2683 13.9001 14.4801 13.4876L14.4814 13.4922C14.9155 13.3713 15.3654 13.6252 15.4862 14.0593C15.5959 14.4531 15.3971 14.8599 15.0352 15.0223C13.6156 15.51 12.2358 15.8008 10.2933 15.8008C8.48168 15.8008 7.2125 15.5479 5.84312 15.1181C5.44661 14.9738 5.2219 14.5461 5.33699 14.1328C5.45787 13.6987 5.90775 13.4448 6.34184 13.5657L6.34218 13.5644C7.52164 13.9332 8.61733 14.169 10.2933 14.169Z" fill="black"/>
</svg>
