<svg width="24" height="24" viewBox="0 0 24 24" fill="none" xmlns="http://www.w3.org/2000/svg">
<g clip-path="url(#clip0_35_86)">
<path d="M23.8534 9.97794C23.8351 9.85438 23.7918 9.73584 23.7264 9.62949C23.6609 9.52313 23.5745 9.43117 23.4725 9.35918C23.3705 9.28719 23.2549 9.23667 23.1328 9.21066C23.0108 9.18466 22.8847 9.18372 22.7622 9.20789C22.6397 9.23207 22.5234 9.28086 22.4203 9.35132C22.3173 9.42178 22.2295 9.51243 22.1625 9.6178C22.0954 9.72317 22.0504 9.84105 22.0302 9.96432C22.01 10.0876 22.015 10.2137 22.045 10.335C22.1337 10.8863 22.1688 11.445 22.1495 12.0031C22.1463 14.6957 21.0759 17.2772 19.1732 19.1812C17.2705 21.0852 14.6908 22.1563 12 22.1595C10.6422 22.1528 9.29921 21.8774 8.04823 21.3492C6.79725 20.821 5.66301 20.0504 4.71079 19.0818H6.09482C6.33953 19.0818 6.57422 18.9845 6.74726 18.8114C6.92029 18.6382 7.01751 18.4034 7.01751 18.1585C7.01751 17.9136 6.92029 17.6788 6.74726 17.5056C6.57422 17.3325 6.33953 17.2352 6.09482 17.2352H2.40408C2.15937 17.2352 1.92469 17.3325 1.75165 17.5056C1.57861 17.6788 1.4814 17.9136 1.4814 18.1585V21.8518C1.4814 22.0966 1.57861 22.3315 1.75165 22.5046C1.92469 22.6778 2.15937 22.7751 2.40408 22.7751C2.6488 22.7751 2.88348 22.6778 3.05652 22.5046C3.22956 22.3315 3.32677 22.0966 3.32677 21.8518V20.3067C4.45515 21.4676 5.80319 22.392 7.29228 23.0261C8.78137 23.6601 10.3817 23.9912 12 24C15.1787 23.9951 18.2259 22.7298 20.4741 20.4812C22.7224 18.2325 23.9884 15.1839 23.9949 12.0031C24.0166 11.325 23.9692 10.6464 23.8534 9.97794ZM1.95505 13.6712C1.86626 13.1199 1.83124 12.5612 1.85047 12.0031C1.85373 9.31042 2.9241 6.72898 4.8268 4.82498C6.7295 2.92098 9.30918 1.84989 12 1.84663C13.3578 1.85339 14.7008 2.1288 15.9518 2.657C17.2028 3.1852 18.337 3.95576 19.2892 4.92434H17.9052C17.6605 4.92434 17.4258 5.02162 17.2527 5.19477C17.0797 5.36793 16.9825 5.60277 16.9825 5.84765C16.9825 6.09253 17.0797 6.32738 17.2527 6.50053C17.4258 6.67369 17.6605 6.77097 17.9052 6.77097H21.5959C21.8406 6.77097 22.0753 6.67369 22.2484 6.50053C22.4214 6.32738 22.5186 6.09253 22.5186 5.84765V2.1544C22.5186 1.90952 22.4214 1.67467 22.2484 1.50152C22.0753 1.32836 21.8406 1.23108 21.5959 1.23108C21.3512 1.23108 21.1165 1.32836 20.9435 1.50152C20.7704 1.67467 20.6732 1.90952 20.6732 2.1544V3.69941C19.5454 2.53747 18.1976 1.61193 16.7084 0.976774C15.2193 0.341619 13.6187 0.00957013 12 0C8.82026 0.00488399 5.77214 1.27106 3.52372 3.52101C1.2753 5.77097 0.0099864 8.82116 0.00510574 12.0031C-0.0165747 12.6812 0.0308294 13.3597 0.146584 14.0282C0.187874 14.2379 0.300578 14.4268 0.465473 14.5626C0.630368 14.6984 0.837242 14.7728 1.05081 14.773C1.11218 14.7791 1.17399 14.7791 1.23535 14.773C1.35578 14.7497 1.47029 14.7023 1.5721 14.6339C1.67392 14.5654 1.76096 14.4772 1.82808 14.3744C1.89519 14.2717 1.94101 14.1565 1.96282 14.0357C1.98463 13.9149 1.98199 13.791 1.95505 13.6712Z" fill="white"/>
</g>
<defs>
<clipPath id="clip0_35_86">
<rect width="24" height="24" fill="white"/>
</clipPath>
</defs>
</svg>
