<?xml version="1.0" encoding="UTF-8"?>
<svg xmlns="http://www.w3.org/2000/svg" data-name="Lager 1" viewBox="0 0 48 48"><path d="M39.5 31.5h-7v-19a4 4 0 0 1 4-4h3a4 4 0 0 1 4 4v15a4 4 0 0 1-4 4zm-4-3h4a1 1 0 0 0 1-1v-15a1 1 0 0 0-1-1h-3a1 1 0 0 0-1 1z" style="fill: #000000;"/><path d="M22.59 43.5h-.48a4.9 4.9 0 0 1-4.4-2.72 7.87 7.87 0 0 1-.59-5.44l1-3.84h-5.26a7.49 7.49 0 0 1-7-10.29L9.6 12a5.48 5.48 0 0 1 5.11-3.5H28a5.51 5.51 0 0 1 4.45 2.27l2.8 3.85-2.42 1.76L30 12.53a2.51 2.51 0 0 0-2-1H14.71a2.49 2.49 0 0 0-2.32 1.57l-3.71 9.23a4.51 4.51 0 0 0 4.18 6.17h9.06L20 36.07a4.91 4.91 0 0 0 .37 3.37 1.9 1.9 0 0 0 1.71 1.06h.48a1.91 1.91 0 0 0 1.91-1.91 7.71 7.71 0 0 1 2.27-5.48l6.17-6.17 2.12 2.12-6.17 6.17a4.71 4.71 0 0 0-1.39 3.36 4.92 4.92 0 0 1-4.91 4.91z" style="fill: #000000;"/></svg>
