<?xml version="1.0" encoding="UTF-8"?><svg id="Lager_1" xmlns="http://www.w3.org/2000/svg" viewBox="0 0 48 48"><defs><style>.cls-1{fill:#bae0ff;}.cls-2{fill:#1861f2;}</style></defs><path class="cls-2" d="m39.5,8.5h-3c-1.7414,0-3.2077,1.1196-3.757,2.6729l-.293-.4028c-1.0354-1.4243-2.6891-2.2679-4.45-2.27h-13.29c-2.2626,0-4.2925,1.3903-5.11,3.5l-3.74,9.21c-.3654.9066-.5499,1.8759-.5429,2.8533.0293,4.1365,3.4064,7.4661,7.5429,7.4367h5.26l-1,3.84c-.4603,1.8255-.251,3.7556.59,5.4399.8296,1.67,2.5352,2.7245,4.4,2.72h.45c2.7095-.0055,4.9045-2.2006,4.91-4.91-.0051-1.2609.4955-2.4713,1.39-3.36l3.73-3.73h6.91c2.2092,0,4-1.7908,4-4v-15c0-2.2092-1.7908-4-4-4Z"/><path class="cls-1" d="m26.74,33.11c-1.4572,1.4509-2.2744,3.4237-2.27,5.48,0,1.0548-.8552,1.91-1.91,1.91h-.48c-.7256.0022-1.3892-.4091-1.71-1.06-.5195-1.0438-.6507-2.2383-.37-3.37l1.92-7.57h-9.06c-.5638-.0016-1.1224-.1091-1.6466-.3166-2.316-.9168-3.4502-3.5375-2.5334-5.8534l3.71-9.23c.3777-.95,1.2977-1.5725,2.32-1.5699h13.29c.7865.0015,1.5269.3717,2,1l2.5,3.401v11.419l-5.76,5.7599Z"/><path class="cls-1" d="m40.5,27.5c0,.5523-.4477,1-1,1h-4V12.5c0-.5523.4477-1,1-1h3c.5523,0,1,.4477,1,1v15Z"/></svg>