<svg width="21" height="21" viewBox="0 0 21 21" fill="none" xmlns="http://www.w3.org/2000/svg">
<path d="M21 10.5C21 16.299 16.299 21 10.5 21C4.70101 21 0 16.299 0 10.5C0 4.70101 4.70101 0 10.5 0C16.299 0 21 4.70101 21 10.5Z" fill="#FBA09C"/>
<path fill-rule="evenodd" clip-rule="evenodd" d="M7.42457 10.1044C7.66177 10.1044 7.88924 10.0102 8.05696 9.84246C8.22468 9.67474 8.31891 9.44727 8.31891 9.21007V6.82518C8.31891 6.58799 8.22468 6.36051 8.05696 6.19279C7.88924 6.02507 7.66177 5.93085 7.42457 5.93085C7.18738 5.93085 6.9599 6.02507 6.79218 6.19279C6.62446 6.36051 6.53024 6.58799 6.53024 6.82518V9.21007C6.53024 9.44727 6.62446 9.67474 6.79218 9.84246C6.9599 10.0102 7.18738 10.1044 7.42457 10.1044ZM14.5793 10.1044C14.8164 10.1044 15.0439 10.0102 15.2116 9.84246C15.3794 9.67474 15.4736 9.44727 15.4736 9.21007V6.82518C15.4736 6.58799 15.3794 6.36051 15.2116 6.19279C15.0439 6.02507 14.8164 5.93085 14.5793 5.93085C14.3421 5.93085 14.1146 6.02507 13.9469 6.19279C13.7791 6.36051 13.6849 6.58799 13.6849 6.82518V9.21007C13.6849 9.44727 13.7791 9.67474 13.9469 9.84246C14.1146 10.0102 14.3421 10.1044 14.5793 10.1044ZM10.889 15.0939C12.6788 15.0939 13.864 15.3627 15.0758 15.7753L15.0771 15.7707C15.5112 15.8916 15.9611 15.6376 16.0819 15.2036C16.1916 14.8098 15.9928 14.403 15.6309 14.2406C14.2113 13.7528 12.8315 13.4621 10.889 13.4621C9.07738 13.4621 7.80821 13.715 6.43883 14.1448C6.04231 14.2891 5.8176 14.7168 5.9327 15.1301C6.05357 15.5642 6.50346 15.8181 6.93754 15.6972L6.93788 15.6984C8.11735 15.3297 9.21303 15.0939 10.889 15.0939Z" fill="black"/>
</svg>
